<?xml version="1.0" encoding="UTF-8" standalone="no"?>
<!DOCTYPE svg PUBLIC "-//W3C//DTD SVG 1.1//EN"
 "http://www.w3.org/Graphics/SVG/1.1/DTD/svg11.dtd">
<!-- Generated by graphviz version 2.47.2 (0)
 -->
<!-- Title: Tree Pages: 1 -->
<svg width="518pt" height="373pt"
 viewBox="0.00 0.00 518.00 373.00" xmlns="http://www.w3.org/2000/svg" xmlns:xlink="http://www.w3.org/1999/xlink">
<g id="graph0" class="graph" transform="scale(1 1) rotate(0) translate(4 369)">
<title>Tree</title>
<polygon fill="white" stroke="transparent" points="-4,4 -4,-369 514,-369 514,4 -4,4"/>
<!-- 0 -->
<g id="node1" class="node">
<title>0</title>
<polygon fill="none" stroke="black" points="252.5,-365 112.5,-365 112.5,-297 252.5,-297 252.5,-365"/>
<text text-anchor="middle" x="182.5" y="-349.8" font-family="Times,serif" font-size="14.00">Petal Width &lt;= &#45;0.547</text>
<text text-anchor="middle" x="182.5" y="-334.8" font-family="Times,serif" font-size="14.00">gini = 0.666</text>
<text text-anchor="middle" x="182.5" y="-319.8" font-family="Times,serif" font-size="14.00">samples = 90</text>
<text text-anchor="middle" x="182.5" y="-304.8" font-family="Times,serif" font-size="14.00">value = [29, 32, 29]</text>
</g>
<!-- 1 -->
<g id="node2" class="node">
<title>1</title>
<polygon fill="none" stroke="black" points="168,-253.5 55,-253.5 55,-200.5 168,-200.5 168,-253.5"/>
<text text-anchor="middle" x="111.5" y="-238.3" font-family="Times,serif" font-size="14.00">gini = 0.0</text>
<text text-anchor="middle" x="111.5" y="-223.3" font-family="Times,serif" font-size="14.00">samples = 29</text>
<text text-anchor="middle" x="111.5" y="-208.3" font-family="Times,serif" font-size="14.00">value = [29, 0, 0]</text>
</g>
<!-- 0&#45;&gt;1 -->
<g id="edge1" class="edge">
<title>0&#45;&gt;1</title>
<path fill="none" stroke="black" d="M159.45,-296.88C151.64,-285.67 142.91,-273.13 135.06,-261.85"/>
<polygon fill="black" stroke="black" points="137.85,-259.73 129.26,-253.52 132.1,-263.73 137.85,-259.73"/>
<text text-anchor="middle" x="124.85" y="-274.43" font-family="Times,serif" font-size="14.00">True</text>
</g>
<!-- 2 -->
<g id="node3" class="node">
<title>2</title>
<polygon fill="none" stroke="black" points="322.5,-261 186.5,-261 186.5,-193 322.5,-193 322.5,-261"/>
<text text-anchor="middle" x="254.5" y="-245.8" font-family="Times,serif" font-size="14.00">Petal Width &lt;= 0.717</text>
<text text-anchor="middle" x="254.5" y="-230.8" font-family="Times,serif" font-size="14.00">gini = 0.499</text>
<text text-anchor="middle" x="254.5" y="-215.8" font-family="Times,serif" font-size="14.00">samples = 61</text>
<text text-anchor="middle" x="254.5" y="-200.8" font-family="Times,serif" font-size="14.00">value = [0, 32, 29]</text>
</g>
<!-- 0&#45;&gt;2 -->
<g id="edge2" class="edge">
<title>0&#45;&gt;2</title>
<path fill="none" stroke="black" d="M205.88,-296.88C212.04,-288.15 218.76,-278.62 225.2,-269.51"/>
<polygon fill="black" stroke="black" points="228.09,-271.49 230.99,-261.3 222.37,-267.45 228.09,-271.49"/>
<text text-anchor="middle" x="235.24" y="-282.24" font-family="Times,serif" font-size="14.00">False</text>
</g>
<!-- 3 -->
<g id="node4" class="node">
<title>3</title>
<polygon fill="none" stroke="black" points="245.5,-157 105.5,-157 105.5,-89 245.5,-89 245.5,-157"/>
<text text-anchor="middle" x="175.5" y="-141.8" font-family="Times,serif" font-size="14.00">Petal Length &lt;= 0.979</text>
<text text-anchor="middle" x="175.5" y="-126.8" font-family="Times,serif" font-size="14.00">gini = 0.114</text>
<text text-anchor="middle" x="175.5" y="-111.8" font-family="Times,serif" font-size="14.00">samples = 33</text>
<text text-anchor="middle" x="175.5" y="-96.8" font-family="Times,serif" font-size="14.00">value = [0, 31, 2]</text>
</g>
<!-- 2&#45;&gt;3 -->
<g id="edge3" class="edge">
<title>2&#45;&gt;3</title>
<path fill="none" stroke="black" d="M228.85,-192.88C222.02,-184.07 214.56,-174.43 207.44,-165.24"/>
<polygon fill="black" stroke="black" points="210.18,-163.06 201.29,-157.3 204.65,-167.35 210.18,-163.06"/>
</g>
<!-- 6 -->
<g id="node7" class="node">
<title>6</title>
<polygon fill="none" stroke="black" points="403.5,-157 263.5,-157 263.5,-89 403.5,-89 403.5,-157"/>
<text text-anchor="middle" x="333.5" y="-141.8" font-family="Times,serif" font-size="14.00">Petal Length &lt;= 0.634</text>
<text text-anchor="middle" x="333.5" y="-126.8" font-family="Times,serif" font-size="14.00">gini = 0.069</text>
<text text-anchor="middle" x="333.5" y="-111.8" font-family="Times,serif" font-size="14.00">samples = 28</text>
<text text-anchor="middle" x="333.5" y="-96.8" font-family="Times,serif" font-size="14.00">value = [0, 1, 27]</text>
</g>
<!-- 2&#45;&gt;6 -->
<g id="edge6" class="edge">
<title>2&#45;&gt;6</title>
<path fill="none" stroke="black" d="M280.15,-192.88C286.98,-184.07 294.44,-174.43 301.56,-165.24"/>
<polygon fill="black" stroke="black" points="304.35,-167.35 307.71,-157.3 298.82,-163.06 304.35,-167.35"/>
</g>
<!-- 4 -->
<g id="node5" class="node">
<title>4</title>
<polygon fill="none" stroke="black" points="113,-53 0,-53 0,0 113,0 113,-53"/>
<text text-anchor="middle" x="56.5" y="-37.8" font-family="Times,serif" font-size="14.00">gini = 0.061</text>
<text text-anchor="middle" x="56.5" y="-22.8" font-family="Times,serif" font-size="14.00">samples = 32</text>
<text text-anchor="middle" x="56.5" y="-7.8" font-family="Times,serif" font-size="14.00">value = [0, 31, 1]</text>
</g>
<!-- 3&#45;&gt;4 -->
<g id="edge4" class="edge">
<title>3&#45;&gt;4</title>
<path fill="none" stroke="black" d="M133.88,-88.95C121.9,-79.43 108.85,-69.07 96.94,-59.62"/>
<polygon fill="black" stroke="black" points="98.92,-56.71 88.91,-53.24 94.56,-62.2 98.92,-56.71"/>
</g>
<!-- 5 -->
<g id="node6" class="node">
<title>5</title>
<polygon fill="none" stroke="black" points="237.5,-53 131.5,-53 131.5,0 237.5,0 237.5,-53"/>
<text text-anchor="middle" x="184.5" y="-37.8" font-family="Times,serif" font-size="14.00">gini = 0.0</text>
<text text-anchor="middle" x="184.5" y="-22.8" font-family="Times,serif" font-size="14.00">samples = 1</text>
<text text-anchor="middle" x="184.5" y="-7.8" font-family="Times,serif" font-size="14.00">value = [0, 0, 1]</text>
</g>
<!-- 3&#45;&gt;5 -->
<g id="edge5" class="edge">
<title>3&#45;&gt;5</title>
<path fill="none" stroke="black" d="M178.65,-88.95C179.44,-80.62 180.3,-71.65 181.1,-63.2"/>
<polygon fill="black" stroke="black" points="184.58,-63.52 182.05,-53.24 177.62,-62.86 184.58,-63.52"/>
</g>
<!-- 7 -->
<g id="node8" class="node">
<title>7</title>
<polygon fill="none" stroke="black" points="378.5,-53 272.5,-53 272.5,0 378.5,0 378.5,-53"/>
<text text-anchor="middle" x="325.5" y="-37.8" font-family="Times,serif" font-size="14.00">gini = 0.5</text>
<text text-anchor="middle" x="325.5" y="-22.8" font-family="Times,serif" font-size="14.00">samples = 2</text>
<text text-anchor="middle" x="325.5" y="-7.8" font-family="Times,serif" font-size="14.00">value = [0, 1, 1]</text>
</g>
<!-- 6&#45;&gt;7 -->
<g id="edge7" class="edge">
<title>6&#45;&gt;7</title>
<path fill="none" stroke="black" d="M330.7,-88.95C330,-80.62 329.24,-71.65 328.52,-63.2"/>
<polygon fill="black" stroke="black" points="332.01,-62.91 327.68,-53.24 325.03,-63.5 332.01,-62.91"/>
</g>
<!-- 8 -->
<g id="node9" class="node">
<title>8</title>
<polygon fill="none" stroke="black" points="510,-53 397,-53 397,0 510,0 510,-53"/>
<text text-anchor="middle" x="453.5" y="-37.8" font-family="Times,serif" font-size="14.00">gini = 0.0</text>
<text text-anchor="middle" x="453.5" y="-22.8" font-family="Times,serif" font-size="14.00">samples = 26</text>
<text text-anchor="middle" x="453.5" y="-7.8" font-family="Times,serif" font-size="14.00">value = [0, 0, 26]</text>
</g>
<!-- 6&#45;&gt;8 -->
<g id="edge8" class="edge">
<title>6&#45;&gt;8</title>
<path fill="none" stroke="black" d="M375.47,-88.95C387.55,-79.43 400.71,-69.07 412.72,-59.62"/>
<polygon fill="black" stroke="black" points="415.13,-62.17 420.82,-53.24 410.8,-56.67 415.13,-62.17"/>
</g>
</g>
</svg>
